<svg width="345" height="483" viewBox="0 0 345 483" fill="none" xmlns="http://www.w3.org/2000/svg">
<rect width="345" height="483" rx="20" fill="url(#paint0_linear)"/>
<rect width="345" height="483" rx="20" fill="#313131" fill-opacity="0.7" style="mix-blend-mode:luminosity"/>
<path d="M65.04 232.98V262H59.74V244.18C59.74 243.807 59.7467 243.407 59.76 242.98C59.7867 242.553 59.8267 242.12 59.88 241.68L51.58 257.42C51.1267 258.287 50.4267 258.72 49.48 258.72H48.64C48.1733 258.72 47.76 258.613 47.4 258.4C47.04 258.173 46.7533 257.847 46.54 257.42L38.2 241.62C38.24 242.087 38.2733 242.54 38.3 242.98C38.3267 243.407 38.34 243.807 38.34 244.18V262H33.04V232.98H37.6C37.8533 232.98 38.08 232.987 38.28 233C38.48 233.013 38.6533 233.053 38.8 233.12C38.96 233.173 39.1 233.267 39.22 233.4C39.3533 233.52 39.48 233.693 39.6 233.92L47.72 249.4C47.9733 249.867 48.2067 250.347 48.42 250.84C48.6467 251.333 48.86 251.84 49.06 252.36C49.26 251.827 49.4667 251.307 49.68 250.8C49.9067 250.293 50.1467 249.807 50.4 249.34L58.46 233.92C58.58 233.693 58.7067 233.52 58.84 233.4C58.9733 233.267 59.1133 233.173 59.26 233.12C59.42 233.053 59.5933 233.013 59.78 233C59.98 232.987 60.2133 232.98 60.48 232.98H65.04ZM77.5869 248.74C76.6669 249.407 76.0069 250.14 75.6069 250.94C75.2069 251.74 75.0069 252.587 75.0069 253.48C75.0069 254.173 75.1202 254.8 75.3469 255.36C75.5735 255.907 75.8869 256.38 76.2869 256.78C76.6869 257.167 77.1602 257.467 77.7069 257.68C78.2535 257.893 78.8402 258 79.4669 258C80.5069 258 81.4669 257.853 82.3469 257.56C83.2402 257.253 84.0535 256.82 84.7869 256.26L77.5869 248.74ZM97.1669 262H91.7469C91.4669 262 91.2135 261.987 90.9869 261.96C90.7735 261.933 90.5735 261.88 90.3869 261.8C90.2002 261.72 90.0202 261.613 89.8469 261.48C89.6735 261.347 89.4935 261.18 89.3069 260.98L87.6669 259.26C86.3869 260.233 84.9735 260.987 83.4269 261.52C81.8935 262.053 80.2469 262.32 78.4869 262.32C77.3535 262.32 76.2402 262.127 75.1469 261.74C74.0535 261.34 73.0802 260.78 72.2269 260.06C71.3735 259.327 70.6869 258.447 70.1669 257.42C69.6469 256.38 69.3869 255.213 69.3869 253.92C69.3869 253.027 69.5269 252.18 69.8069 251.38C70.0869 250.58 70.4802 249.84 70.9869 249.16C71.5069 248.48 72.1135 247.86 72.8069 247.3C73.5135 246.74 74.2869 246.26 75.1269 245.86C74.4469 244.873 73.9535 243.913 73.6469 242.98C73.3535 242.033 73.2069 241.1 73.2069 240.18C73.2069 239.167 73.3935 238.207 73.7669 237.3C74.1402 236.38 74.6802 235.58 75.3869 234.9C76.0935 234.207 76.9602 233.66 77.9869 233.26C79.0269 232.86 80.2069 232.66 81.5269 232.66C82.7535 232.66 83.8469 232.847 84.8069 233.22C85.7669 233.58 86.5802 234.067 87.2469 234.68C87.9135 235.293 88.4335 235.993 88.8069 236.78C89.1935 237.567 89.4269 238.387 89.5069 239.24L85.9869 239.96C85.3335 240.093 84.8602 239.827 84.5669 239.16C84.3002 238.467 83.9269 237.9 83.4469 237.46C82.9802 237.007 82.3402 236.78 81.5269 236.78C81.0202 236.78 80.5669 236.873 80.1669 237.06C79.7669 237.233 79.4269 237.473 79.1469 237.78C78.8802 238.087 78.6735 238.447 78.5269 238.86C78.3935 239.26 78.3269 239.687 78.3269 240.14C78.3269 240.513 78.3602 240.873 78.4269 241.22C78.5069 241.567 78.6269 241.92 78.7869 242.28C78.9602 242.627 79.1869 242.987 79.4669 243.36C79.7469 243.733 80.0869 244.133 80.4869 244.56L87.9469 252.36C88.3602 251.547 88.6869 250.693 88.9269 249.8C89.1669 248.893 89.3269 247.967 89.4069 247.02C89.4469 246.673 89.5602 246.4 89.7469 246.2C89.9469 246 90.2135 245.9 90.5469 245.9H94.0069C94.0069 247.74 93.7469 249.48 93.2269 251.12C92.7202 252.76 92.0069 254.267 91.0869 255.64L97.1669 262ZM118.658 237.82H110.178V262H104.158V237.82H95.6781V232.98H118.658V237.82ZM141.68 257.4C142.64 257.4 143.427 257.287 144.04 257.06C144.667 256.82 145.167 256.507 145.54 256.12C145.913 255.733 146.173 255.293 146.32 254.8C146.467 254.293 146.54 253.773 146.54 253.24C146.54 252.653 146.453 252.127 146.28 251.66C146.107 251.193 145.827 250.8 145.44 250.48C145.053 250.147 144.547 249.893 143.92 249.72C143.307 249.547 142.547 249.46 141.64 249.46H136.54V257.4H141.68ZM136.54 237.54V245.38H140.48C141.32 245.38 142.067 245.313 142.72 245.18C143.373 245.033 143.92 244.807 144.36 244.5C144.8 244.193 145.133 243.793 145.36 243.3C145.6 242.793 145.72 242.187 145.72 241.48C145.72 240.76 145.62 240.147 145.42 239.64C145.233 239.133 144.94 238.727 144.54 238.42C144.14 238.113 143.633 237.893 143.02 237.76C142.407 237.613 141.68 237.54 140.84 237.54H136.54ZM140.84 232.98C142.787 232.98 144.447 233.167 145.82 233.54C147.207 233.9 148.333 234.42 149.2 235.1C150.08 235.767 150.72 236.58 151.12 237.54C151.52 238.5 151.72 239.573 151.72 240.76C151.72 241.427 151.62 242.067 151.42 242.68C151.233 243.293 150.933 243.873 150.52 244.42C150.12 244.953 149.6 245.44 148.96 245.88C148.32 246.32 147.56 246.693 146.68 247C148.653 247.467 150.113 248.227 151.06 249.28C152.007 250.333 152.48 251.7 152.48 253.38C152.48 254.607 152.24 255.747 151.76 256.8C151.293 257.853 150.607 258.767 149.7 259.54C148.793 260.313 147.673 260.92 146.34 261.36C145.02 261.787 143.5 262 141.78 262H130.54V232.98H140.84ZM166.771 253.38C165.424 253.447 164.304 253.567 163.411 253.74C162.518 253.9 161.804 254.113 161.271 254.38C160.751 254.647 160.378 254.953 160.151 255.3C159.938 255.633 159.831 256 159.831 256.4C159.831 257.2 160.051 257.767 160.491 258.1C160.944 258.433 161.571 258.6 162.371 258.6C163.291 258.6 164.084 258.44 164.751 258.12C165.431 257.787 166.104 257.273 166.771 256.58V253.38ZM155.531 244.24C156.744 243.147 158.084 242.333 159.551 241.8C161.018 241.253 162.604 240.98 164.311 240.98C165.538 240.98 166.631 241.18 167.591 241.58C168.564 241.98 169.384 242.54 170.051 243.26C170.731 243.967 171.251 244.813 171.611 245.8C171.971 246.787 172.151 247.867 172.151 249.04V262H169.631C169.111 262 168.711 261.927 168.431 261.78C168.164 261.633 167.944 261.327 167.771 260.86L167.331 259.54C166.811 259.993 166.304 260.393 165.811 260.74C165.331 261.087 164.831 261.38 164.311 261.62C163.791 261.847 163.231 262.02 162.631 262.14C162.044 262.26 161.384 262.32 160.651 262.32C159.744 262.32 158.918 262.2 158.171 261.96C157.424 261.72 156.778 261.367 156.231 260.9C155.698 260.42 155.284 259.827 154.991 259.12C154.698 258.413 154.551 257.6 154.551 256.68C154.551 255.92 154.744 255.16 155.131 254.4C155.518 253.64 156.178 252.953 157.111 252.34C158.058 251.713 159.311 251.2 160.871 250.8C162.444 250.387 164.411 250.153 166.771 250.1V249.04C166.771 247.747 166.498 246.8 165.951 246.2C165.404 245.587 164.618 245.28 163.591 245.28C162.831 245.28 162.198 245.373 161.691 245.56C161.184 245.733 160.738 245.927 160.351 246.14C159.978 246.34 159.624 246.533 159.291 246.72C158.958 246.893 158.571 246.98 158.131 246.98C157.744 246.98 157.418 246.887 157.151 246.7C156.898 246.5 156.684 246.267 156.511 246L155.531 244.24ZM181.58 243.78C181.993 243.38 182.42 243.013 182.86 242.68C183.313 242.347 183.786 242.06 184.28 241.82C184.786 241.58 185.326 241.393 185.9 241.26C186.486 241.127 187.12 241.06 187.8 241.06C188.92 241.06 189.913 241.253 190.78 241.64C191.646 242.027 192.373 242.567 192.96 243.26C193.56 243.953 194.006 244.78 194.3 245.74C194.606 246.7 194.76 247.753 194.76 248.9V262H189.26V248.9C189.26 247.753 188.993 246.867 188.46 246.24C187.926 245.6 187.14 245.28 186.1 245.28C185.326 245.28 184.6 245.447 183.92 245.78C183.24 246.113 182.593 246.58 181.98 247.18V262H176.46V241.38H179.86C180.553 241.38 181.013 241.7 181.24 242.34L181.58 243.78ZM204.675 232.18V249.1H205.595C205.942 249.1 206.215 249.053 206.415 248.96C206.615 248.853 206.815 248.667 207.015 248.4L211.575 242.32C211.802 242.013 212.055 241.78 212.335 241.62C212.628 241.46 212.995 241.38 213.435 241.38H218.475L212.555 248.9C212.088 249.527 211.548 250.02 210.935 250.38C211.242 250.593 211.508 250.84 211.735 251.12C211.962 251.4 212.182 251.713 212.395 252.06L218.775 262H213.815C213.388 262 213.022 261.933 212.715 261.8C212.408 261.653 212.155 261.4 211.955 261.04L207.315 253.46C207.128 253.14 206.935 252.933 206.735 252.84C206.535 252.747 206.235 252.7 205.835 252.7H204.675V262H199.155V232.18H204.675Z" fill="white" fill-opacity="0.85"/>
<path d="M45.457 289.152C45.5957 289.152 45.717 289.208 45.821 289.321L46.822 290.4C46.0593 291.284 45.132 291.973 44.04 292.467C42.9567 292.961 41.6437 293.208 40.101 293.208C38.7663 293.208 37.553 292.978 36.461 292.519C35.369 292.051 34.4373 291.401 33.666 290.569C32.8947 289.728 32.2967 288.723 31.872 287.553C31.4473 286.383 31.235 285.096 31.235 283.692C31.235 282.288 31.456 281.001 31.898 279.831C32.34 278.661 32.9597 277.656 33.757 276.815C34.563 275.974 35.525 275.324 36.643 274.865C37.761 274.397 38.996 274.163 40.348 274.163C41.674 274.163 42.844 274.375 43.858 274.8C44.872 275.225 45.7647 275.801 46.536 276.529L45.704 277.686C45.652 277.773 45.5827 277.846 45.496 277.907C45.418 277.959 45.3097 277.985 45.171 277.985C45.015 277.985 44.8243 277.903 44.599 277.738C44.3737 277.565 44.079 277.374 43.715 277.166C43.351 276.958 42.896 276.772 42.35 276.607C41.804 276.434 41.1323 276.347 40.335 276.347C39.373 276.347 38.4933 276.516 37.696 276.854C36.8987 277.183 36.2097 277.664 35.629 278.297C35.057 278.93 34.6107 279.701 34.29 280.611C33.9693 281.521 33.809 282.548 33.809 283.692C33.809 284.853 33.9737 285.889 34.303 286.799C34.641 287.709 35.096 288.48 35.668 289.113C36.2487 289.737 36.929 290.214 37.709 290.543C38.4977 290.872 39.347 291.037 40.257 291.037C40.8117 291.037 41.31 291.007 41.752 290.946C42.2027 290.877 42.6143 290.773 42.987 290.634C43.3683 290.495 43.7193 290.322 44.04 290.114C44.3693 289.897 44.6943 289.642 45.015 289.347C45.1623 289.217 45.3097 289.152 45.457 289.152ZM59.8261 279.831V293H58.4481C58.1187 293 57.9107 292.84 57.8241 292.519L57.6421 291.102C57.0701 291.735 56.4287 292.246 55.7181 292.636C55.0074 293.017 54.1927 293.208 53.2741 293.208C52.5547 293.208 51.9177 293.091 51.3631 292.857C50.8171 292.614 50.3577 292.276 49.9851 291.843C49.6124 291.41 49.3307 290.885 49.1401 290.27C48.9581 289.655 48.8671 288.974 48.8671 288.229V279.831H51.1811V288.229C51.1811 289.226 51.4064 289.997 51.8571 290.543C52.3164 291.089 53.0141 291.362 53.9501 291.362C54.6347 291.362 55.2717 291.202 55.8611 290.881C56.4591 290.552 57.0094 290.101 57.5121 289.529V279.831H59.8261ZM65.6921 282.47C66.1081 281.569 66.6194 280.867 67.2261 280.364C67.8328 279.853 68.5738 279.597 69.4491 279.597C69.7264 279.597 69.9908 279.627 70.2421 279.688C70.5021 279.749 70.7318 279.844 70.9311 279.974L70.7621 281.703C70.7101 281.92 70.5801 282.028 70.3721 282.028C70.2508 282.028 70.0731 282.002 69.8391 281.95C69.6051 281.898 69.3408 281.872 69.0461 281.872C68.6301 281.872 68.2574 281.933 67.9281 282.054C67.6074 282.175 67.3171 282.357 67.0571 282.6C66.8058 282.834 66.5761 283.129 66.3681 283.484C66.1688 283.831 65.9868 284.229 65.8221 284.68V293H63.4951V279.831H64.8211C65.0724 279.831 65.2458 279.879 65.3411 279.974C65.4364 280.069 65.5014 280.234 65.5361 280.468L65.6921 282.47ZM75.1628 282.47C75.5788 281.569 76.0901 280.867 76.6968 280.364C77.3035 279.853 78.0445 279.597 78.9198 279.597C79.1971 279.597 79.4615 279.627 79.7128 279.688C79.9728 279.749 80.2025 279.844 80.4018 279.974L80.2328 281.703C80.1808 281.92 80.0508 282.028 79.8428 282.028C79.7215 282.028 79.5438 282.002 79.3098 281.95C79.0758 281.898 78.8115 281.872 78.5168 281.872C78.1008 281.872 77.7281 281.933 77.3988 282.054C77.0781 282.175 76.7878 282.357 76.5278 282.6C76.2765 282.834 76.0468 283.129 75.8388 283.484C75.6395 283.831 75.4575 284.229 75.2928 284.68V293H72.9658V279.831H74.2918C74.5431 279.831 74.7165 279.879 74.8118 279.974C74.9071 280.069 74.9721 280.234 75.0068 280.468L75.1628 282.47ZM90.7173 284.979C90.7173 284.442 90.6393 283.952 90.4833 283.51C90.336 283.059 90.115 282.674 89.8203 282.353C89.5343 282.024 89.1833 281.772 88.7673 281.599C88.3513 281.417 87.879 281.326 87.3503 281.326C86.241 281.326 85.3613 281.651 84.7113 282.301C84.07 282.942 83.6713 283.835 83.5153 284.979H90.7173ZM92.5893 291.154C92.3033 291.501 91.961 291.804 91.5623 292.064C91.1636 292.315 90.7346 292.523 90.2753 292.688C89.8246 292.853 89.3566 292.974 88.8713 293.052C88.386 293.139 87.905 293.182 87.4283 293.182C86.5183 293.182 85.6776 293.03 84.9063 292.727C84.1436 292.415 83.4806 291.964 82.9173 291.375C82.3626 290.777 81.9293 290.04 81.6173 289.165C81.3053 288.29 81.1493 287.284 81.1493 286.149C81.1493 285.23 81.288 284.372 81.5653 283.575C81.8513 282.778 82.2586 282.089 82.7873 281.508C83.316 280.919 83.9616 280.459 84.7243 280.13C85.487 279.792 86.345 279.623 87.2983 279.623C88.087 279.623 88.815 279.757 89.4823 280.026C90.1583 280.286 90.739 280.667 91.2243 281.17C91.7183 281.664 92.104 282.279 92.3813 283.016C92.6586 283.744 92.7973 284.576 92.7973 285.512C92.7973 285.876 92.7583 286.119 92.6803 286.24C92.6023 286.361 92.455 286.422 92.2383 286.422H83.4373C83.4633 287.254 83.576 287.978 83.7753 288.593C83.9833 289.208 84.2693 289.724 84.6333 290.14C84.9973 290.547 85.4306 290.855 85.9333 291.063C86.436 291.262 86.9993 291.362 87.6233 291.362C88.204 291.362 88.7023 291.297 89.1183 291.167C89.543 291.028 89.907 290.881 90.2103 290.725C90.5136 290.569 90.765 290.426 90.9643 290.296C91.1723 290.157 91.35 290.088 91.4973 290.088C91.688 290.088 91.8353 290.162 91.9393 290.309L92.5893 291.154ZM97.8236 281.742C98.1096 281.421 98.413 281.131 98.7336 280.871C99.0543 280.611 99.3923 280.39 99.7476 280.208C100.112 280.017 100.493 279.874 100.892 279.779C101.299 279.675 101.737 279.623 102.205 279.623C102.924 279.623 103.557 279.744 104.103 279.987C104.657 280.221 105.117 280.559 105.481 281.001C105.853 281.434 106.135 281.959 106.326 282.574C106.516 283.189 106.612 283.87 106.612 284.615V293H104.285V284.615C104.285 283.618 104.055 282.847 103.596 282.301C103.145 281.746 102.456 281.469 101.529 281.469C100.844 281.469 100.203 281.634 99.6046 281.963C99.0153 282.292 98.4693 282.739 97.9666 283.302V293H95.6396V279.831H97.0306C97.36 279.831 97.5636 279.991 97.6416 280.312L97.8236 281.742ZM119.303 282.171C119.233 282.266 119.164 282.34 119.095 282.392C119.025 282.444 118.93 282.47 118.809 282.47C118.679 282.47 118.536 282.418 118.38 282.314C118.224 282.201 118.029 282.08 117.795 281.95C117.569 281.82 117.288 281.703 116.95 281.599C116.62 281.486 116.213 281.43 115.728 281.43C115.078 281.43 114.506 281.547 114.012 281.781C113.518 282.006 113.102 282.336 112.764 282.769C112.434 283.202 112.183 283.727 112.01 284.342C111.845 284.957 111.763 285.646 111.763 286.409C111.763 287.206 111.854 287.917 112.036 288.541C112.218 289.156 112.473 289.676 112.803 290.101C113.141 290.517 113.544 290.838 114.012 291.063C114.488 291.28 115.021 291.388 115.611 291.388C116.174 291.388 116.638 291.323 117.002 291.193C117.366 291.054 117.665 290.903 117.899 290.738C118.141 290.573 118.341 290.426 118.497 290.296C118.661 290.157 118.822 290.088 118.978 290.088C119.168 290.088 119.316 290.162 119.42 290.309L120.07 291.154C119.784 291.509 119.459 291.813 119.095 292.064C118.731 292.315 118.336 292.528 117.912 292.701C117.496 292.866 117.058 292.987 116.599 293.065C116.139 293.143 115.671 293.182 115.195 293.182C114.371 293.182 113.604 293.03 112.894 292.727C112.192 292.424 111.581 291.986 111.061 291.414C110.541 290.833 110.133 290.123 109.839 289.282C109.544 288.441 109.397 287.484 109.397 286.409C109.397 285.43 109.531 284.524 109.8 283.692C110.077 282.86 110.476 282.145 110.996 281.547C111.524 280.94 112.17 280.468 112.933 280.13C113.704 279.792 114.588 279.623 115.585 279.623C116.512 279.623 117.327 279.775 118.029 280.078C118.739 280.373 119.368 280.793 119.914 281.339L119.303 282.171ZM133.916 279.831L126.571 296.887C126.493 297.06 126.393 297.199 126.272 297.303C126.159 297.407 125.981 297.459 125.739 297.459H124.023L126.428 292.233L120.994 279.831H122.996C123.195 279.831 123.351 279.883 123.464 279.987C123.585 280.082 123.667 280.191 123.711 280.312L127.234 288.606C127.372 288.97 127.489 289.351 127.585 289.75C127.706 289.343 127.836 288.957 127.975 288.593L131.394 280.312C131.446 280.173 131.532 280.061 131.654 279.974C131.784 279.879 131.927 279.831 132.083 279.831H133.916ZM158.67 283.692C158.67 285.087 158.449 286.357 158.007 287.501C157.565 288.645 156.941 289.624 156.135 290.439C155.329 291.254 154.358 291.886 153.223 292.337C152.096 292.779 150.848 293 149.479 293H142.524V274.371H149.479C150.848 274.371 152.096 274.596 153.223 275.047C154.358 275.489 155.329 276.122 156.135 276.945C156.941 277.76 157.565 278.739 158.007 279.883C158.449 281.027 158.67 282.297 158.67 283.692ZM156.083 283.692C156.083 282.548 155.927 281.525 155.615 280.624C155.303 279.723 154.861 278.96 154.289 278.336C153.717 277.712 153.023 277.235 152.209 276.906C151.394 276.577 150.484 276.412 149.479 276.412H145.046V290.959H149.479C150.484 290.959 151.394 290.794 152.209 290.465C153.023 290.136 153.717 289.663 154.289 289.048C154.861 288.424 155.303 287.661 155.615 286.76C155.927 285.859 156.083 284.836 156.083 283.692ZM170.393 284.979C170.393 284.442 170.315 283.952 170.159 283.51C170.012 283.059 169.791 282.674 169.496 282.353C169.21 282.024 168.859 281.772 168.443 281.599C168.027 281.417 167.555 281.326 167.026 281.326C165.917 281.326 165.037 281.651 164.387 282.301C163.746 282.942 163.347 283.835 163.191 284.979H170.393ZM172.265 291.154C171.979 291.501 171.637 291.804 171.238 292.064C170.839 292.315 170.41 292.523 169.951 292.688C169.5 292.853 169.032 292.974 168.547 293.052C168.062 293.139 167.581 293.182 167.104 293.182C166.194 293.182 165.353 293.03 164.582 292.727C163.819 292.415 163.156 291.964 162.593 291.375C162.038 290.777 161.605 290.04 161.293 289.165C160.981 288.29 160.825 287.284 160.825 286.149C160.825 285.23 160.964 284.372 161.241 283.575C161.527 282.778 161.934 282.089 162.463 281.508C162.992 280.919 163.637 280.459 164.4 280.13C165.163 279.792 166.021 279.623 166.974 279.623C167.763 279.623 168.491 279.757 169.158 280.026C169.834 280.286 170.415 280.667 170.9 281.17C171.394 281.664 171.78 282.279 172.057 283.016C172.334 283.744 172.473 284.576 172.473 285.512C172.473 285.876 172.434 286.119 172.356 286.24C172.278 286.361 172.131 286.422 171.914 286.422H163.113C163.139 287.254 163.252 287.978 163.451 288.593C163.659 289.208 163.945 289.724 164.309 290.14C164.673 290.547 165.106 290.855 165.609 291.063C166.112 291.262 166.675 291.362 167.299 291.362C167.88 291.362 168.378 291.297 168.794 291.167C169.219 291.028 169.583 290.881 169.886 290.725C170.189 290.569 170.441 290.426 170.64 290.296C170.848 290.157 171.026 290.088 171.173 290.088C171.364 290.088 171.511 290.162 171.615 290.309L172.265 291.154ZM182.985 282.002C182.881 282.193 182.721 282.288 182.504 282.288C182.374 282.288 182.227 282.24 182.062 282.145C181.898 282.05 181.694 281.946 181.451 281.833C181.217 281.712 180.936 281.603 180.606 281.508C180.277 281.404 179.887 281.352 179.436 281.352C179.046 281.352 178.695 281.404 178.383 281.508C178.071 281.603 177.803 281.738 177.577 281.911C177.361 282.084 177.192 282.288 177.07 282.522C176.958 282.747 176.901 282.994 176.901 283.263C176.901 283.601 176.997 283.883 177.187 284.108C177.387 284.333 177.647 284.528 177.967 284.693C178.288 284.858 178.652 285.005 179.059 285.135C179.467 285.256 179.883 285.391 180.307 285.538C180.741 285.677 181.161 285.833 181.568 286.006C181.976 286.179 182.34 286.396 182.66 286.656C182.981 286.916 183.237 287.237 183.427 287.618C183.627 287.991 183.726 288.441 183.726 288.97C183.726 289.577 183.618 290.14 183.401 290.66C183.185 291.171 182.864 291.618 182.439 291.999C182.015 292.372 181.495 292.666 180.879 292.883C180.264 293.1 179.553 293.208 178.747 293.208C177.829 293.208 176.997 293.061 176.251 292.766C175.506 292.463 174.873 292.077 174.353 291.609L174.899 290.725C174.969 290.612 175.051 290.526 175.146 290.465C175.242 290.404 175.363 290.374 175.51 290.374C175.666 290.374 175.831 290.435 176.004 290.556C176.178 290.677 176.386 290.812 176.628 290.959C176.88 291.106 177.183 291.241 177.538 291.362C177.894 291.483 178.336 291.544 178.864 291.544C179.315 291.544 179.709 291.488 180.047 291.375C180.385 291.254 180.667 291.093 180.892 290.894C181.118 290.695 181.282 290.465 181.386 290.205C181.499 289.945 181.555 289.668 181.555 289.373C181.555 289.009 181.456 288.71 181.256 288.476C181.066 288.233 180.81 288.03 180.489 287.865C180.169 287.692 179.8 287.544 179.384 287.423C178.977 287.293 178.557 287.159 178.123 287.02C177.699 286.881 177.278 286.725 176.862 286.552C176.455 286.37 176.091 286.145 175.77 285.876C175.45 285.607 175.19 285.278 174.99 284.888C174.8 284.489 174.704 284.008 174.704 283.445C174.704 282.942 174.808 282.461 175.016 282.002C175.224 281.534 175.528 281.127 175.926 280.78C176.325 280.425 176.815 280.143 177.395 279.935C177.976 279.727 178.639 279.623 179.384 279.623C180.251 279.623 181.027 279.762 181.711 280.039C182.405 280.308 183.003 280.68 183.505 281.157L182.985 282.002ZM189.007 279.831V293H186.693V279.831H189.007ZM189.501 275.697C189.501 275.922 189.454 276.135 189.358 276.334C189.272 276.525 189.15 276.698 188.994 276.854C188.847 277.001 188.669 277.118 188.461 277.205C188.262 277.292 188.05 277.335 187.824 277.335C187.599 277.335 187.387 277.292 187.187 277.205C186.997 277.118 186.828 277.001 186.68 276.854C186.533 276.698 186.416 276.525 186.329 276.334C186.243 276.135 186.199 275.922 186.199 275.697C186.199 275.472 186.243 275.259 186.329 275.06C186.416 274.852 186.533 274.674 186.68 274.527C186.828 274.371 186.997 274.25 187.187 274.163C187.387 274.076 187.599 274.033 187.824 274.033C188.05 274.033 188.262 274.076 188.461 274.163C188.669 274.25 188.847 274.371 188.994 274.527C189.15 274.674 189.272 274.852 189.358 275.06C189.454 275.259 189.501 275.472 189.501 275.697ZM197.399 286.565C197.867 286.565 198.278 286.5 198.634 286.37C198.989 286.24 199.288 286.058 199.531 285.824C199.773 285.59 199.955 285.313 200.077 284.992C200.198 284.663 200.259 284.303 200.259 283.913C200.259 283.107 200.012 282.466 199.518 281.989C199.032 281.512 198.326 281.274 197.399 281.274C196.463 281.274 195.748 281.512 195.254 281.989C194.768 282.466 194.526 283.107 194.526 283.913C194.526 284.303 194.586 284.663 194.708 284.992C194.838 285.313 195.024 285.59 195.267 285.824C195.509 286.058 195.808 286.24 196.164 286.37C196.519 286.5 196.931 286.565 197.399 286.565ZM201.572 293.715C201.572 293.394 201.481 293.134 201.299 292.935C201.117 292.736 200.87 292.58 200.558 292.467C200.254 292.354 199.899 292.276 199.492 292.233C199.084 292.181 198.651 292.142 198.192 292.116C197.741 292.09 197.282 292.064 196.814 292.038C196.346 292.012 195.895 291.969 195.462 291.908C194.976 292.133 194.578 292.419 194.266 292.766C193.962 293.104 193.811 293.503 193.811 293.962C193.811 294.257 193.884 294.53 194.032 294.781C194.188 295.041 194.422 295.262 194.734 295.444C195.046 295.635 195.436 295.782 195.904 295.886C196.38 295.999 196.939 296.055 197.581 296.055C198.205 296.055 198.764 295.999 199.258 295.886C199.752 295.773 200.168 295.613 200.506 295.405C200.852 295.197 201.117 294.95 201.299 294.664C201.481 294.378 201.572 294.062 201.572 293.715ZM203.925 280.351V281.209C203.925 281.495 203.743 281.677 203.379 281.755L201.884 281.95C202.178 282.522 202.326 283.155 202.326 283.848C202.326 284.489 202.2 285.074 201.949 285.603C201.706 286.123 201.368 286.569 200.935 286.942C200.501 287.315 199.981 287.601 199.375 287.8C198.768 287.999 198.109 288.099 197.399 288.099C196.783 288.099 196.203 288.025 195.657 287.878C195.379 288.051 195.167 288.238 195.02 288.437C194.872 288.628 194.799 288.823 194.799 289.022C194.799 289.334 194.924 289.572 195.176 289.737C195.436 289.893 195.774 290.006 196.19 290.075C196.606 290.144 197.078 290.188 197.607 290.205C198.144 290.222 198.69 290.253 199.245 290.296C199.808 290.331 200.354 290.396 200.883 290.491C201.42 290.586 201.897 290.742 202.313 290.959C202.729 291.176 203.062 291.475 203.314 291.856C203.574 292.237 203.704 292.731 203.704 293.338C203.704 293.901 203.561 294.447 203.275 294.976C202.997 295.505 202.594 295.973 202.066 296.38C201.537 296.796 200.887 297.125 200.116 297.368C199.353 297.619 198.491 297.745 197.529 297.745C196.567 297.745 195.726 297.65 195.007 297.459C194.287 297.268 193.689 297.013 193.213 296.692C192.736 296.371 192.376 295.999 192.134 295.574C191.9 295.158 191.783 294.72 191.783 294.261C191.783 293.611 191.986 293.061 192.394 292.61C192.801 292.159 193.36 291.8 194.071 291.531C193.681 291.358 193.369 291.128 193.135 290.842C192.909 290.547 192.797 290.153 192.797 289.659C192.797 289.468 192.831 289.273 192.901 289.074C192.97 288.866 193.074 288.662 193.213 288.463C193.36 288.255 193.538 288.06 193.746 287.878C193.954 287.696 194.196 287.536 194.474 287.397C193.824 287.033 193.317 286.552 192.953 285.954C192.589 285.347 192.407 284.645 192.407 283.848C192.407 283.207 192.528 282.626 192.771 282.106C193.022 281.577 193.369 281.131 193.811 280.767C194.253 280.394 194.777 280.108 195.384 279.909C195.999 279.71 196.671 279.61 197.399 279.61C197.971 279.61 198.504 279.675 198.998 279.805C199.492 279.926 199.942 280.108 200.35 280.351H203.925ZM208.501 281.742C208.787 281.421 209.091 281.131 209.411 280.871C209.732 280.611 210.07 280.39 210.425 280.208C210.789 280.017 211.171 279.874 211.569 279.779C211.977 279.675 212.414 279.623 212.882 279.623C213.602 279.623 214.234 279.744 214.78 279.987C215.335 280.221 215.794 280.559 216.158 281.001C216.531 281.434 216.813 281.959 217.003 282.574C217.194 283.189 217.289 283.87 217.289 284.615V293H214.962V284.615C214.962 283.618 214.733 282.847 214.273 282.301C213.823 281.746 213.134 281.469 212.206 281.469C211.522 281.469 210.88 281.634 210.282 281.963C209.693 282.292 209.147 282.739 208.644 283.302V293H206.317V279.831H207.708C208.038 279.831 208.241 279.991 208.319 280.312L208.501 281.742ZM41.908 299.283C41.83 299.413 41.7433 299.513 41.648 299.582C41.5613 299.643 41.453 299.673 41.323 299.673C41.1757 299.673 41.0023 299.599 40.803 299.452C40.6037 299.305 40.3523 299.144 40.049 298.971C39.7543 298.789 39.3947 298.624 38.97 298.477C38.554 298.33 38.047 298.256 37.449 298.256C36.8857 298.256 36.3873 298.334 35.954 298.49C35.5293 298.637 35.1697 298.841 34.875 299.101C34.589 299.361 34.3723 299.669 34.225 300.024C34.0777 300.371 34.004 300.748 34.004 301.155C34.004 301.675 34.1297 302.108 34.381 302.455C34.641 302.793 34.979 303.083 35.395 303.326C35.8197 303.569 36.2963 303.781 36.825 303.963C37.3623 304.136 37.9083 304.318 38.463 304.509C39.0263 304.7 39.5723 304.916 40.101 305.159C40.6383 305.393 41.115 305.692 41.531 306.056C41.9557 306.42 42.2937 306.866 42.545 307.395C42.805 307.924 42.935 308.574 42.935 309.345C42.935 310.16 42.7963 310.927 42.519 311.646C42.2417 312.357 41.8343 312.976 41.297 313.505C40.7683 314.034 40.114 314.45 39.334 314.753C38.5627 315.056 37.683 315.208 36.695 315.208C35.4817 315.208 34.381 314.991 33.393 314.558C32.405 314.116 31.56 313.522 30.858 312.777L31.586 311.581C31.6553 311.486 31.7377 311.408 31.833 311.347C31.937 311.278 32.0497 311.243 32.171 311.243C32.2837 311.243 32.4093 311.291 32.548 311.386C32.6953 311.473 32.86 311.585 33.042 311.724C33.224 311.863 33.432 312.014 33.666 312.179C33.9 312.344 34.1643 312.495 34.459 312.634C34.7623 312.773 35.1047 312.89 35.486 312.985C35.8673 313.072 36.2963 313.115 36.773 313.115C37.371 313.115 37.904 313.033 38.372 312.868C38.84 312.703 39.2343 312.474 39.555 312.179C39.8843 311.876 40.1357 311.516 40.309 311.1C40.4823 310.684 40.569 310.22 40.569 309.709C40.569 309.146 40.439 308.686 40.179 308.331C39.9277 307.967 39.594 307.664 39.178 307.421C38.762 307.178 38.2853 306.975 37.748 306.81C37.2107 306.637 36.6647 306.463 36.11 306.29C35.5553 306.108 35.0093 305.9 34.472 305.666C33.9347 305.432 33.458 305.129 33.042 304.756C32.626 304.383 32.288 303.92 32.028 303.365C31.7767 302.802 31.651 302.108 31.651 301.285C31.651 300.626 31.7767 299.989 32.028 299.374C32.288 298.759 32.6607 298.213 33.146 297.736C33.64 297.259 34.2423 296.878 34.953 296.592C35.6723 296.306 36.4957 296.163 37.423 296.163C38.463 296.163 39.4077 296.328 40.257 296.657C41.115 296.986 41.869 297.463 42.519 298.087L41.908 299.283ZM56.6266 301.831L49.2816 318.887C49.2036 319.06 49.104 319.199 48.9826 319.303C48.87 319.407 48.6923 319.459 48.4496 319.459H46.7336L49.1386 314.233L43.7046 301.831H45.7066C45.906 301.831 46.062 301.883 46.1746 301.987C46.296 302.082 46.3783 302.191 46.4216 302.312L49.9446 310.606C50.0833 310.97 50.2003 311.351 50.2956 311.75C50.417 311.343 50.547 310.957 50.6856 310.593L54.1046 302.312C54.1566 302.173 54.2433 302.061 54.3646 301.974C54.4946 301.879 54.6376 301.831 54.7936 301.831H56.6266ZM66.1124 304.002C66.0084 304.193 65.848 304.288 65.6314 304.288C65.5014 304.288 65.354 304.24 65.1894 304.145C65.0247 304.05 64.821 303.946 64.5784 303.833C64.3444 303.712 64.0627 303.603 63.7334 303.508C63.404 303.404 63.014 303.352 62.5634 303.352C62.1734 303.352 61.8224 303.404 61.5104 303.508C61.1984 303.603 60.9297 303.738 60.7044 303.911C60.4877 304.084 60.3187 304.288 60.1974 304.522C60.0847 304.747 60.0284 304.994 60.0284 305.263C60.0284 305.601 60.1237 305.883 60.3144 306.108C60.5137 306.333 60.7737 306.528 61.0944 306.693C61.415 306.858 61.779 307.005 62.1864 307.135C62.5937 307.256 63.0097 307.391 63.4344 307.538C63.8677 307.677 64.288 307.833 64.6954 308.006C65.1027 308.179 65.4667 308.396 65.7874 308.656C66.108 308.916 66.3637 309.237 66.5544 309.618C66.7537 309.991 66.8534 310.441 66.8534 310.97C66.8534 311.577 66.745 312.14 66.5284 312.66C66.3117 313.171 65.991 313.618 65.5664 313.999C65.1417 314.372 64.6217 314.666 64.0064 314.883C63.391 315.1 62.6804 315.208 61.8744 315.208C60.9557 315.208 60.1237 315.061 59.3784 314.766C58.633 314.463 58.0004 314.077 57.4804 313.609L58.0264 312.725C58.0957 312.612 58.178 312.526 58.2734 312.465C58.3687 312.404 58.49 312.374 58.6374 312.374C58.7934 312.374 58.958 312.435 59.1314 312.556C59.3047 312.677 59.5127 312.812 59.7554 312.959C60.0067 313.106 60.31 313.241 60.6654 313.362C61.0207 313.483 61.4627 313.544 61.9914 313.544C62.442 313.544 62.8364 313.488 63.1744 313.375C63.5124 313.254 63.794 313.093 64.0194 312.894C64.2447 312.695 64.4094 312.465 64.5134 312.205C64.626 311.945 64.6824 311.668 64.6824 311.373C64.6824 311.009 64.5827 310.71 64.3834 310.476C64.1927 310.233 63.937 310.03 63.6164 309.865C63.2957 309.692 62.9274 309.544 62.5114 309.423C62.104 309.293 61.6837 309.159 61.2504 309.02C60.8257 308.881 60.4054 308.725 59.9894 308.552C59.582 308.37 59.218 308.145 58.8974 307.876C58.5767 307.607 58.3167 307.278 58.1174 306.888C57.9267 306.489 57.8314 306.008 57.8314 305.445C57.8314 304.942 57.9354 304.461 58.1434 304.002C58.3514 303.534 58.6547 303.127 59.0534 302.78C59.452 302.425 59.9417 302.143 60.5224 301.935C61.103 301.727 61.766 301.623 62.5114 301.623C63.378 301.623 64.1537 301.762 64.8384 302.039C65.5317 302.308 66.1297 302.68 66.6324 303.157L66.1124 304.002ZM73.7334 315.208C72.6934 315.208 71.8918 314.918 71.3284 314.337C70.7738 313.756 70.4964 312.92 70.4964 311.828V303.768H68.9104C68.7718 303.768 68.6548 303.729 68.5594 303.651C68.4641 303.564 68.4164 303.434 68.4164 303.261V302.338L70.5744 302.065L71.1074 297.996C71.1334 297.866 71.1898 297.762 71.2764 297.684C71.3718 297.597 71.4931 297.554 71.6404 297.554H72.8104V302.091H76.6194V303.768H72.8104V311.672C72.8104 312.227 72.9448 312.638 73.2134 312.907C73.4821 313.176 73.8288 313.31 74.2534 313.31C74.4961 313.31 74.7041 313.28 74.8774 313.219C75.0594 313.15 75.2154 313.076 75.3454 312.998C75.4754 312.92 75.5838 312.851 75.6704 312.79C75.7658 312.721 75.8481 312.686 75.9174 312.686C76.0388 312.686 76.1471 312.76 76.2424 312.907L76.9184 314.012C76.5198 314.385 76.0388 314.679 75.4754 314.896C74.9121 315.104 74.3314 315.208 73.7334 315.208ZM87.7466 306.979C87.7466 306.442 87.6686 305.952 87.5126 305.51C87.3653 305.059 87.1443 304.674 86.8496 304.353C86.5636 304.024 86.2126 303.772 85.7966 303.599C85.3806 303.417 84.9083 303.326 84.3796 303.326C83.2703 303.326 82.3906 303.651 81.7406 304.301C81.0993 304.942 80.7006 305.835 80.5446 306.979H87.7466ZM89.6186 313.154C89.3326 313.501 88.9903 313.804 88.5916 314.064C88.1929 314.315 87.7639 314.523 87.3046 314.688C86.8539 314.853 86.3859 314.974 85.9006 315.052C85.4153 315.139 84.9343 315.182 84.4576 315.182C83.5476 315.182 82.7069 315.03 81.9356 314.727C81.1729 314.415 80.5099 313.964 79.9466 313.375C79.3919 312.777 78.9586 312.04 78.6466 311.165C78.3346 310.29 78.1786 309.284 78.1786 308.149C78.1786 307.23 78.3173 306.372 78.5946 305.575C78.8806 304.778 79.2879 304.089 79.8166 303.508C80.3453 302.919 80.9909 302.459 81.7536 302.13C82.5163 301.792 83.3743 301.623 84.3276 301.623C85.1163 301.623 85.8443 301.757 86.5116 302.026C87.1876 302.286 87.7683 302.667 88.2536 303.17C88.7476 303.664 89.1333 304.279 89.4106 305.016C89.6879 305.744 89.8266 306.576 89.8266 307.512C89.8266 307.876 89.7876 308.119 89.7096 308.24C89.6316 308.361 89.4843 308.422 89.2676 308.422H80.4666C80.4926 309.254 80.6053 309.978 80.8046 310.593C81.0126 311.208 81.2986 311.724 81.6626 312.14C82.0266 312.547 82.4599 312.855 82.9626 313.063C83.4653 313.262 84.0286 313.362 84.6526 313.362C85.2333 313.362 85.7316 313.297 86.1476 313.167C86.5723 313.028 86.9363 312.881 87.2396 312.725C87.5429 312.569 87.7943 312.426 87.9936 312.296C88.2016 312.157 88.3793 312.088 88.5266 312.088C88.7173 312.088 88.8646 312.162 88.9686 312.309L89.6186 313.154ZM92.6689 315V301.831H94.0599C94.3893 301.831 94.5929 301.991 94.6709 302.312L94.8399 303.664C95.3253 303.066 95.8713 302.576 96.4779 302.195C97.0846 301.814 97.7866 301.623 98.5839 301.623C99.4679 301.623 100.183 301.87 100.729 302.364C101.284 302.858 101.682 303.525 101.925 304.366C102.116 303.889 102.358 303.478 102.653 303.131C102.956 302.784 103.294 302.498 103.667 302.273C104.04 302.048 104.434 301.883 104.85 301.779C105.275 301.675 105.704 301.623 106.137 301.623C106.83 301.623 107.446 301.736 107.983 301.961C108.529 302.178 108.988 302.498 109.361 302.923C109.742 303.348 110.033 303.872 110.232 304.496C110.431 305.111 110.531 305.818 110.531 306.615V315H108.204V306.615C108.204 305.584 107.979 304.804 107.528 304.275C107.077 303.738 106.427 303.469 105.578 303.469C105.197 303.469 104.833 303.538 104.486 303.677C104.148 303.807 103.849 304.002 103.589 304.262C103.329 304.522 103.121 304.851 102.965 305.25C102.818 305.64 102.744 306.095 102.744 306.615V315H100.417V306.615C100.417 305.558 100.205 304.769 99.7799 304.249C99.3553 303.729 98.7356 303.469 97.9209 303.469C97.3489 303.469 96.8203 303.625 96.3349 303.937C95.8496 304.24 95.4033 304.656 94.9959 305.185V315H92.6689ZM126.407 305.393C127.135 305.393 127.777 305.306 128.331 305.133C128.895 304.951 129.363 304.7 129.735 304.379C130.117 304.05 130.403 303.66 130.593 303.209C130.784 302.758 130.879 302.26 130.879 301.714C130.879 300.605 130.515 299.768 129.787 299.205C129.059 298.642 127.967 298.36 126.511 298.36H123.755V305.393H126.407ZM135.013 315H132.777C132.318 315 131.98 314.822 131.763 314.467L126.927 307.811C126.78 307.603 126.62 307.456 126.446 307.369C126.282 307.274 126.022 307.226 125.666 307.226H123.755V315H121.246V296.371H126.511C127.69 296.371 128.708 296.492 129.566 296.735C130.424 296.969 131.131 297.311 131.685 297.762C132.249 298.213 132.665 298.759 132.933 299.4C133.202 300.033 133.336 300.743 133.336 301.532C133.336 302.191 133.232 302.806 133.024 303.378C132.816 303.95 132.513 304.466 132.114 304.925C131.724 305.376 131.243 305.761 130.671 306.082C130.108 306.403 129.467 306.645 128.747 306.81C129.068 306.992 129.345 307.256 129.579 307.603L135.013 315ZM144.977 306.979C144.977 306.442 144.899 305.952 144.743 305.51C144.596 305.059 144.375 304.674 144.08 304.353C143.794 304.024 143.443 303.772 143.027 303.599C142.611 303.417 142.139 303.326 141.61 303.326C140.501 303.326 139.621 303.651 138.971 304.301C138.33 304.942 137.931 305.835 137.775 306.979H144.977ZM146.849 313.154C146.563 313.501 146.221 313.804 145.822 314.064C145.423 314.315 144.994 314.523 144.535 314.688C144.084 314.853 143.616 314.974 143.131 315.052C142.646 315.139 142.165 315.182 141.688 315.182C140.778 315.182 139.937 315.03 139.166 314.727C138.403 314.415 137.74 313.964 137.177 313.375C136.622 312.777 136.189 312.04 135.877 311.165C135.565 310.29 135.409 309.284 135.409 308.149C135.409 307.23 135.548 306.372 135.825 305.575C136.111 304.778 136.518 304.089 137.047 303.508C137.576 302.919 138.221 302.459 138.984 302.13C139.747 301.792 140.605 301.623 141.558 301.623C142.347 301.623 143.075 301.757 143.742 302.026C144.418 302.286 144.999 302.667 145.484 303.17C145.978 303.664 146.364 304.279 146.641 305.016C146.918 305.744 147.057 306.576 147.057 307.512C147.057 307.876 147.018 308.119 146.94 308.24C146.862 308.361 146.715 308.422 146.498 308.422H137.697C137.723 309.254 137.836 309.978 138.035 310.593C138.243 311.208 138.529 311.724 138.893 312.14C139.257 312.547 139.69 312.855 140.193 313.063C140.696 313.262 141.259 313.362 141.883 313.362C142.464 313.362 142.962 313.297 143.378 313.167C143.803 313.028 144.167 312.881 144.47 312.725C144.773 312.569 145.025 312.426 145.224 312.296C145.432 312.157 145.61 312.088 145.757 312.088C145.948 312.088 146.095 312.162 146.199 312.309L146.849 313.154ZM149.691 306.225H156.113V308.188H149.691V306.225ZM168.128 304.964C167.695 304.383 167.227 303.98 166.724 303.755C166.221 303.521 165.658 303.404 165.034 303.404C163.812 303.404 162.872 303.842 162.213 304.717C161.554 305.592 161.225 306.84 161.225 308.461C161.225 309.319 161.299 310.056 161.446 310.671C161.593 311.278 161.81 311.78 162.096 312.179C162.382 312.569 162.733 312.855 163.149 313.037C163.565 313.219 164.037 313.31 164.566 313.31C165.329 313.31 165.992 313.137 166.555 312.79C167.127 312.443 167.651 311.954 168.128 311.321V304.964ZM170.442 295.851V315H169.064C168.735 315 168.527 314.84 168.44 314.519L168.232 312.92C167.669 313.596 167.027 314.142 166.308 314.558C165.589 314.974 164.757 315.182 163.812 315.182C163.058 315.182 162.373 315.039 161.758 314.753C161.143 314.458 160.618 314.029 160.185 313.466C159.752 312.903 159.418 312.201 159.184 311.36C158.95 310.519 158.833 309.553 158.833 308.461C158.833 307.49 158.963 306.589 159.223 305.757C159.483 304.916 159.856 304.188 160.341 303.573C160.826 302.958 161.42 302.477 162.122 302.13C162.833 301.775 163.63 301.597 164.514 301.597C165.32 301.597 166.009 301.736 166.581 302.013C167.162 302.282 167.677 302.659 168.128 303.144V295.851H170.442ZM182.911 306.979C182.911 306.442 182.833 305.952 182.677 305.51C182.529 305.059 182.308 304.674 182.014 304.353C181.728 304.024 181.377 303.772 180.961 303.599C180.545 303.417 180.072 303.326 179.544 303.326C178.434 303.326 177.555 303.651 176.905 304.301C176.263 304.942 175.865 305.835 175.709 306.979H182.911ZM184.783 313.154C184.497 313.501 184.154 313.804 183.756 314.064C183.357 314.315 182.928 314.523 182.469 314.688C182.018 314.853 181.55 314.974 181.065 315.052C180.579 315.139 180.098 315.182 179.622 315.182C178.712 315.182 177.871 315.03 177.1 314.727C176.337 314.415 175.674 313.964 175.111 313.375C174.556 312.777 174.123 312.04 173.811 311.165C173.499 310.29 173.343 309.284 173.343 308.149C173.343 307.23 173.481 306.372 173.759 305.575C174.045 304.778 174.452 304.089 174.981 303.508C175.509 302.919 176.155 302.459 176.918 302.13C177.68 301.792 178.538 301.623 179.492 301.623C180.28 301.623 181.008 301.757 181.676 302.026C182.352 302.286 182.932 302.667 183.418 303.17C183.912 303.664 184.297 304.279 184.575 305.016C184.852 305.744 184.991 306.576 184.991 307.512C184.991 307.876 184.952 308.119 184.874 308.24C184.796 308.361 184.648 308.422 184.432 308.422H175.631C175.657 309.254 175.769 309.978 175.969 310.593C176.177 311.208 176.463 311.724 176.827 312.14C177.191 312.547 177.624 312.855 178.127 313.063C178.629 313.262 179.193 313.362 179.817 313.362C180.397 313.362 180.896 313.297 181.312 313.167C181.736 313.028 182.1 312.881 182.404 312.725C182.707 312.569 182.958 312.426 183.158 312.296C183.366 312.157 183.543 312.088 183.691 312.088C183.881 312.088 184.029 312.162 184.133 312.309L184.783 313.154ZM195.503 304.002C195.399 304.193 195.239 304.288 195.022 304.288C194.892 304.288 194.745 304.24 194.58 304.145C194.415 304.05 194.212 303.946 193.969 303.833C193.735 303.712 193.453 303.603 193.124 303.508C192.795 303.404 192.405 303.352 191.954 303.352C191.564 303.352 191.213 303.404 190.901 303.508C190.589 303.603 190.32 303.738 190.095 303.911C189.878 304.084 189.709 304.288 189.588 304.522C189.475 304.747 189.419 304.994 189.419 305.263C189.419 305.601 189.514 305.883 189.705 306.108C189.904 306.333 190.164 306.528 190.485 306.693C190.806 306.858 191.17 307.005 191.577 307.135C191.984 307.256 192.4 307.391 192.825 307.538C193.258 307.677 193.679 307.833 194.086 308.006C194.493 308.179 194.857 308.396 195.178 308.656C195.499 308.916 195.754 309.237 195.945 309.618C196.144 309.991 196.244 310.441 196.244 310.97C196.244 311.577 196.136 312.14 195.919 312.66C195.702 313.171 195.382 313.618 194.957 313.999C194.532 314.372 194.012 314.666 193.397 314.883C192.782 315.1 192.071 315.208 191.265 315.208C190.346 315.208 189.514 315.061 188.769 314.766C188.024 314.463 187.391 314.077 186.871 313.609L187.417 312.725C187.486 312.612 187.569 312.526 187.664 312.465C187.759 312.404 187.881 312.374 188.028 312.374C188.184 312.374 188.349 312.435 188.522 312.556C188.695 312.677 188.903 312.812 189.146 312.959C189.397 313.106 189.701 313.241 190.056 313.362C190.411 313.483 190.853 313.544 191.382 313.544C191.833 313.544 192.227 313.488 192.565 313.375C192.903 313.254 193.185 313.093 193.41 312.894C193.635 312.695 193.8 312.465 193.904 312.205C194.017 311.945 194.073 311.668 194.073 311.373C194.073 311.009 193.973 310.71 193.774 310.476C193.583 310.233 193.328 310.03 193.007 309.865C192.686 309.692 192.318 309.544 191.902 309.423C191.495 309.293 191.074 309.159 190.641 309.02C190.216 308.881 189.796 308.725 189.38 308.552C188.973 308.37 188.609 308.145 188.288 307.876C187.967 307.607 187.707 307.278 187.508 306.888C187.317 306.489 187.222 306.008 187.222 305.445C187.222 304.942 187.326 304.461 187.534 304.002C187.742 303.534 188.045 303.127 188.444 302.78C188.843 302.425 189.332 302.143 189.913 301.935C190.494 301.727 191.157 301.623 191.902 301.623C192.769 301.623 193.544 301.762 194.229 302.039C194.922 302.308 195.52 302.68 196.023 303.157L195.503 304.002ZM201.525 301.831V315H199.211V301.831H201.525ZM202.019 297.697C202.019 297.922 201.971 298.135 201.876 298.334C201.789 298.525 201.668 298.698 201.512 298.854C201.365 299.001 201.187 299.118 200.979 299.205C200.78 299.292 200.567 299.335 200.342 299.335C200.117 299.335 199.904 299.292 199.705 299.205C199.514 299.118 199.345 299.001 199.198 298.854C199.051 298.698 198.934 298.525 198.847 298.334C198.76 298.135 198.717 297.922 198.717 297.697C198.717 297.472 198.76 297.259 198.847 297.06C198.934 296.852 199.051 296.674 199.198 296.527C199.345 296.371 199.514 296.25 199.705 296.163C199.904 296.076 200.117 296.033 200.342 296.033C200.567 296.033 200.78 296.076 200.979 296.163C201.187 296.25 201.365 296.371 201.512 296.527C201.668 296.674 201.789 296.852 201.876 297.06C201.971 297.259 202.019 297.472 202.019 297.697ZM209.916 308.565C210.384 308.565 210.796 308.5 211.151 308.37C211.506 308.24 211.805 308.058 212.048 307.824C212.291 307.59 212.473 307.313 212.594 306.992C212.715 306.663 212.776 306.303 212.776 305.913C212.776 305.107 212.529 304.466 212.035 303.989C211.55 303.512 210.843 303.274 209.916 303.274C208.98 303.274 208.265 303.512 207.771 303.989C207.286 304.466 207.043 305.107 207.043 305.913C207.043 306.303 207.104 306.663 207.225 306.992C207.355 307.313 207.541 307.59 207.784 307.824C208.027 308.058 208.326 308.24 208.681 308.37C209.036 308.5 209.448 308.565 209.916 308.565ZM214.089 315.715C214.089 315.394 213.998 315.134 213.816 314.935C213.634 314.736 213.387 314.58 213.075 314.467C212.772 314.354 212.416 314.276 212.009 314.233C211.602 314.181 211.168 314.142 210.709 314.116C210.258 314.09 209.799 314.064 209.331 314.038C208.863 314.012 208.412 313.969 207.979 313.908C207.494 314.133 207.095 314.419 206.783 314.766C206.48 315.104 206.328 315.503 206.328 315.962C206.328 316.257 206.402 316.53 206.549 316.781C206.705 317.041 206.939 317.262 207.251 317.444C207.563 317.635 207.953 317.782 208.421 317.886C208.898 317.999 209.457 318.055 210.098 318.055C210.722 318.055 211.281 317.999 211.775 317.886C212.269 317.773 212.685 317.613 213.023 317.405C213.37 317.197 213.634 316.95 213.816 316.664C213.998 316.378 214.089 316.062 214.089 315.715ZM216.442 302.351V303.209C216.442 303.495 216.26 303.677 215.896 303.755L214.401 303.95C214.696 304.522 214.843 305.155 214.843 305.848C214.843 306.489 214.717 307.074 214.466 307.603C214.223 308.123 213.885 308.569 213.452 308.942C213.019 309.315 212.499 309.601 211.892 309.8C211.285 309.999 210.627 310.099 209.916 310.099C209.301 310.099 208.72 310.025 208.174 309.878C207.897 310.051 207.684 310.238 207.537 310.437C207.39 310.628 207.316 310.823 207.316 311.022C207.316 311.334 207.442 311.572 207.693 311.737C207.953 311.893 208.291 312.006 208.707 312.075C209.123 312.144 209.595 312.188 210.124 312.205C210.661 312.222 211.207 312.253 211.762 312.296C212.325 312.331 212.871 312.396 213.4 312.491C213.937 312.586 214.414 312.742 214.83 312.959C215.246 313.176 215.58 313.475 215.831 313.856C216.091 314.237 216.221 314.731 216.221 315.338C216.221 315.901 216.078 316.447 215.792 316.976C215.515 317.505 215.112 317.973 214.583 318.38C214.054 318.796 213.404 319.125 212.633 319.368C211.87 319.619 211.008 319.745 210.046 319.745C209.084 319.745 208.243 319.65 207.524 319.459C206.805 319.268 206.207 319.013 205.73 318.692C205.253 318.371 204.894 317.999 204.651 317.574C204.417 317.158 204.3 316.72 204.3 316.261C204.3 315.611 204.504 315.061 204.911 314.61C205.318 314.159 205.877 313.8 206.588 313.531C206.198 313.358 205.886 313.128 205.652 312.842C205.427 312.547 205.314 312.153 205.314 311.659C205.314 311.468 205.349 311.273 205.418 311.074C205.487 310.866 205.591 310.662 205.73 310.463C205.877 310.255 206.055 310.06 206.263 309.878C206.471 309.696 206.714 309.536 206.991 309.397C206.341 309.033 205.834 308.552 205.47 307.954C205.106 307.347 204.924 306.645 204.924 305.848C204.924 305.207 205.045 304.626 205.288 304.106C205.539 303.577 205.886 303.131 206.328 302.767C206.77 302.394 207.294 302.108 207.901 301.909C208.516 301.71 209.188 301.61 209.916 301.61C210.488 301.61 211.021 301.675 211.515 301.805C212.009 301.926 212.46 302.108 212.867 302.351H216.442ZM221.019 303.742C221.305 303.421 221.608 303.131 221.929 302.871C222.25 302.611 222.588 302.39 222.943 302.208C223.307 302.017 223.688 301.874 224.087 301.779C224.494 301.675 224.932 301.623 225.4 301.623C226.119 301.623 226.752 301.744 227.298 301.987C227.853 302.221 228.312 302.559 228.676 303.001C229.049 303.434 229.33 303.959 229.521 304.574C229.712 305.189 229.807 305.87 229.807 306.615V315H227.48V306.615C227.48 305.618 227.25 304.847 226.791 304.301C226.34 303.746 225.651 303.469 224.724 303.469C224.039 303.469 223.398 303.634 222.8 303.963C222.211 304.292 221.665 304.739 221.162 305.302V315H218.835V301.831H220.226C220.555 301.831 220.759 301.991 220.837 302.312L221.019 303.742ZM34.901 337H32.379V318.371H34.901V337ZM41.101 325.742C41.387 325.421 41.6903 325.131 42.011 324.871C42.3317 324.611 42.6697 324.39 43.025 324.208C43.389 324.017 43.7703 323.874 44.169 323.779C44.5763 323.675 45.014 323.623 45.482 323.623C46.2013 323.623 46.834 323.744 47.38 323.987C47.9347 324.221 48.394 324.559 48.758 325.001C49.1307 325.434 49.4123 325.959 49.603 326.574C49.7937 327.189 49.889 327.87 49.889 328.615V337H47.562V328.615C47.562 327.618 47.3323 326.847 46.873 326.301C46.4223 325.746 45.7333 325.469 44.806 325.469C44.1213 325.469 43.48 325.634 42.882 325.963C42.2927 326.292 41.7467 326.739 41.244 327.302V337H38.917V323.831H40.308C40.6373 323.831 40.841 323.991 40.919 324.312L41.101 325.742ZM57.2803 337.208C56.2403 337.208 55.4386 336.918 54.8753 336.337C54.3206 335.756 54.0433 334.92 54.0433 333.828V325.768H52.4573C52.3186 325.768 52.2016 325.729 52.1063 325.651C52.011 325.564 51.9633 325.434 51.9633 325.261V324.338L54.1213 324.065L54.6543 319.996C54.6803 319.866 54.7366 319.762 54.8233 319.684C54.9186 319.597 55.04 319.554 55.1873 319.554H56.3573V324.091H60.1663V325.768H56.3573V333.672C56.3573 334.227 56.4916 334.638 56.7603 334.907C57.029 335.176 57.3756 335.31 57.8003 335.31C58.043 335.31 58.251 335.28 58.4243 335.219C58.6063 335.15 58.7623 335.076 58.8923 334.998C59.0223 334.92 59.1306 334.851 59.2173 334.79C59.3126 334.721 59.395 334.686 59.4643 334.686C59.5856 334.686 59.694 334.76 59.7893 334.907L60.4653 336.012C60.0666 336.385 59.5856 336.679 59.0223 336.896C58.459 337.104 57.8783 337.208 57.2803 337.208ZM71.2935 328.979C71.2935 328.442 71.2155 327.952 71.0595 327.51C70.9122 327.059 70.6912 326.674 70.3965 326.353C70.1105 326.024 69.7595 325.772 69.3435 325.599C68.9275 325.417 68.4552 325.326 67.9265 325.326C66.8172 325.326 65.9375 325.651 65.2875 326.301C64.6462 326.942 64.2475 327.835 64.0915 328.979H71.2935ZM73.1655 335.154C72.8795 335.501 72.5372 335.804 72.1385 336.064C71.7398 336.315 71.3108 336.523 70.8515 336.688C70.4008 336.853 69.9328 336.974 69.4475 337.052C68.9622 337.139 68.4812 337.182 68.0045 337.182C67.0945 337.182 66.2538 337.03 65.4825 336.727C64.7198 336.415 64.0568 335.964 63.4935 335.375C62.9388 334.777 62.5055 334.04 62.1935 333.165C61.8815 332.29 61.7255 331.284 61.7255 330.149C61.7255 329.23 61.8642 328.372 62.1415 327.575C62.4275 326.778 62.8348 326.089 63.3635 325.508C63.8922 324.919 64.5378 324.459 65.3005 324.13C66.0632 323.792 66.9212 323.623 67.8745 323.623C68.6632 323.623 69.3912 323.757 70.0585 324.026C70.7345 324.286 71.3152 324.667 71.8005 325.17C72.2945 325.664 72.6802 326.279 72.9575 327.016C73.2348 327.744 73.3735 328.576 73.3735 329.512C73.3735 329.876 73.3345 330.119 73.2565 330.24C73.1785 330.361 73.0312 330.422 72.8145 330.422H64.0135C64.0395 331.254 64.1522 331.978 64.3515 332.593C64.5595 333.208 64.8455 333.724 65.2095 334.14C65.5735 334.547 66.0068 334.855 66.5095 335.063C67.0122 335.262 67.5755 335.362 68.1995 335.362C68.7802 335.362 69.2785 335.297 69.6945 335.167C70.1192 335.028 70.4832 334.881 70.7865 334.725C71.0898 334.569 71.3412 334.426 71.5405 334.296C71.7485 334.157 71.9262 334.088 72.0735 334.088C72.2642 334.088 72.4115 334.162 72.5155 334.309L73.1655 335.154ZM78.4128 326.47C78.8288 325.569 79.3401 324.867 79.9468 324.364C80.5535 323.853 81.2945 323.597 82.1698 323.597C82.4471 323.597 82.7115 323.627 82.9628 323.688C83.2228 323.749 83.4525 323.844 83.6518 323.974L83.4828 325.703C83.4308 325.92 83.3008 326.028 83.0928 326.028C82.9715 326.028 82.7938 326.002 82.5598 325.95C82.3258 325.898 82.0615 325.872 81.7668 325.872C81.3508 325.872 80.9781 325.933 80.6488 326.054C80.3281 326.175 80.0378 326.357 79.7778 326.6C79.5265 326.834 79.2968 327.129 79.0888 327.484C78.8895 327.831 78.7075 328.229 78.5428 328.68V337H76.2158V323.831H77.5418C77.7931 323.831 77.9665 323.879 78.0618 323.974C78.1571 324.069 78.2221 324.234 78.2568 324.468L78.4128 326.47ZM87.8705 325.742C88.1565 325.421 88.4598 325.131 88.7805 324.871C89.1012 324.611 89.4392 324.39 89.7945 324.208C90.1585 324.017 90.5398 323.874 90.9385 323.779C91.3458 323.675 91.7835 323.623 92.2515 323.623C92.9708 323.623 93.6035 323.744 94.1495 323.987C94.7042 324.221 95.1635 324.559 95.5275 325.001C95.9002 325.434 96.1818 325.959 96.3725 326.574C96.5632 327.189 96.6585 327.87 96.6585 328.615V337H94.3315V328.615C94.3315 327.618 94.1018 326.847 93.6425 326.301C93.1918 325.746 92.5028 325.469 91.5755 325.469C90.8908 325.469 90.2495 325.634 89.6515 325.963C89.0622 326.292 88.5162 326.739 88.0135 327.302V337H85.6865V323.831H87.0775C87.4068 323.831 87.6105 323.991 87.6885 324.312L87.8705 325.742ZM107.855 326.002C107.751 326.193 107.59 326.288 107.374 326.288C107.244 326.288 107.096 326.24 106.932 326.145C106.767 326.05 106.563 325.946 106.321 325.833C106.087 325.712 105.805 325.603 105.476 325.508C105.146 325.404 104.756 325.352 104.306 325.352C103.916 325.352 103.565 325.404 103.253 325.508C102.941 325.603 102.672 325.738 102.447 325.911C102.23 326.084 102.061 326.288 101.94 326.522C101.827 326.747 101.771 326.994 101.771 327.263C101.771 327.601 101.866 327.883 102.057 328.108C102.256 328.333 102.516 328.528 102.837 328.693C103.157 328.858 103.521 329.005 103.929 329.135C104.336 329.256 104.752 329.391 105.177 329.538C105.61 329.677 106.03 329.833 106.438 330.006C106.845 330.179 107.209 330.396 107.53 330.656C107.85 330.916 108.106 331.237 108.297 331.618C108.496 331.991 108.596 332.441 108.596 332.97C108.596 333.577 108.487 334.14 108.271 334.66C108.054 335.171 107.733 335.618 107.309 335.999C106.884 336.372 106.364 336.666 105.749 336.883C105.133 337.1 104.423 337.208 103.617 337.208C102.698 337.208 101.866 337.061 101.121 336.766C100.375 336.463 99.7426 336.077 99.2226 335.609L99.7686 334.725C99.8379 334.612 99.9202 334.526 100.016 334.465C100.111 334.404 100.232 334.374 100.38 334.374C100.536 334.374 100.7 334.435 100.874 334.556C101.047 334.677 101.255 334.812 101.498 334.959C101.749 335.106 102.052 335.241 102.408 335.362C102.763 335.483 103.205 335.544 103.734 335.544C104.184 335.544 104.579 335.488 104.917 335.375C105.255 335.254 105.536 335.093 105.762 334.894C105.987 334.695 106.152 334.465 106.256 334.205C106.368 333.945 106.425 333.668 106.425 333.373C106.425 333.009 106.325 332.71 106.126 332.476C105.935 332.233 105.679 332.03 105.359 331.865C105.038 331.692 104.67 331.544 104.254 331.423C103.846 331.293 103.426 331.159 102.993 331.02C102.568 330.881 102.148 330.725 101.732 330.552C101.324 330.37 100.96 330.145 100.64 329.876C100.319 329.607 100.059 329.278 99.8596 328.888C99.6689 328.489 99.5736 328.008 99.5736 327.445C99.5736 326.942 99.6776 326.461 99.8856 326.002C100.094 325.534 100.397 325.127 100.796 324.78C101.194 324.425 101.684 324.143 102.265 323.935C102.845 323.727 103.508 323.623 104.254 323.623C105.12 323.623 105.896 323.762 106.581 324.039C107.274 324.308 107.872 324.68 108.375 325.157L107.855 326.002ZM113.76 325.586C114.323 324.988 114.947 324.511 115.632 324.156C116.316 323.801 117.105 323.623 117.998 323.623C118.717 323.623 119.35 323.744 119.896 323.987C120.45 324.221 120.91 324.559 121.274 325.001C121.646 325.434 121.928 325.959 122.119 326.574C122.309 327.189 122.405 327.87 122.405 328.615V337H120.078V328.615C120.078 327.618 119.848 326.847 119.389 326.301C118.938 325.746 118.249 325.469 117.322 325.469C116.637 325.469 115.996 325.634 115.398 325.963C114.808 326.292 114.262 326.739 113.76 327.302V337H111.433V317.851H113.76V325.586ZM128.375 323.831V337H126.061V323.831H128.375ZM128.869 319.697C128.869 319.922 128.821 320.135 128.726 320.334C128.639 320.525 128.518 320.698 128.362 320.854C128.214 321.001 128.037 321.118 127.829 321.205C127.629 321.292 127.417 321.335 127.192 321.335C126.966 321.335 126.754 321.292 126.555 321.205C126.364 321.118 126.195 321.001 126.048 320.854C125.9 320.698 125.783 320.525 125.697 320.334C125.61 320.135 125.567 319.922 125.567 319.697C125.567 319.472 125.61 319.259 125.697 319.06C125.783 318.852 125.9 318.674 126.048 318.527C126.195 318.371 126.364 318.25 126.555 318.163C126.754 318.076 126.966 318.033 127.192 318.033C127.417 318.033 127.629 318.076 127.829 318.163C128.037 318.25 128.214 318.371 128.362 318.527C128.518 318.674 128.639 318.852 128.726 319.06C128.821 319.259 128.869 319.472 128.869 319.697ZM134.504 333.828C134.928 334.4 135.392 334.803 135.895 335.037C136.397 335.271 136.961 335.388 137.585 335.388C138.815 335.388 139.76 334.95 140.419 334.075C141.077 333.2 141.407 331.952 141.407 330.331C141.407 329.473 141.329 328.736 141.173 328.121C141.025 327.506 140.809 327.003 140.523 326.613C140.237 326.214 139.886 325.924 139.47 325.742C139.054 325.56 138.581 325.469 138.053 325.469C137.299 325.469 136.636 325.642 136.064 325.989C135.5 326.336 134.98 326.825 134.504 327.458V333.828ZM134.387 325.872C134.941 325.187 135.583 324.637 136.311 324.221C137.039 323.805 137.871 323.597 138.807 323.597C139.569 323.597 140.258 323.744 140.874 324.039C141.489 324.325 142.013 324.754 142.447 325.326C142.88 325.889 143.214 326.591 143.448 327.432C143.682 328.273 143.799 329.239 143.799 330.331C143.799 331.302 143.669 332.207 143.409 333.048C143.149 333.88 142.772 334.604 142.278 335.219C141.792 335.826 141.194 336.307 140.484 336.662C139.782 337.009 138.989 337.182 138.105 337.182C137.299 337.182 136.605 337.048 136.025 336.779C135.453 336.502 134.946 336.12 134.504 335.635V341.459H132.177V323.831H133.568C133.897 323.831 134.101 323.991 134.179 324.312L134.387 325.872ZM167.027 333.152C167.166 333.152 167.287 333.208 167.391 333.321L168.392 334.4C167.63 335.284 166.702 335.973 165.61 336.467C164.527 336.961 163.214 337.208 161.671 337.208C160.337 337.208 159.123 336.978 158.031 336.519C156.939 336.051 156.008 335.401 155.236 334.569C154.465 333.728 153.867 332.723 153.442 331.553C153.018 330.383 152.805 329.096 152.805 327.692C152.805 326.288 153.026 325.001 153.468 323.831C153.91 322.661 154.53 321.656 155.327 320.815C156.133 319.974 157.095 319.324 158.213 318.865C159.331 318.397 160.566 318.163 161.918 318.163C163.244 318.163 164.414 318.375 165.428 318.8C166.442 319.225 167.335 319.801 168.106 320.529L167.274 321.686C167.222 321.773 167.153 321.846 167.066 321.907C166.988 321.959 166.88 321.985 166.741 321.985C166.585 321.985 166.395 321.903 166.169 321.738C165.944 321.565 165.649 321.374 165.285 321.166C164.921 320.958 164.466 320.772 163.92 320.607C163.374 320.434 162.703 320.347 161.905 320.347C160.943 320.347 160.064 320.516 159.266 320.854C158.469 321.183 157.78 321.664 157.199 322.297C156.627 322.93 156.181 323.701 155.86 324.611C155.54 325.521 155.379 326.548 155.379 327.692C155.379 328.853 155.544 329.889 155.873 330.799C156.211 331.709 156.666 332.48 157.238 333.113C157.819 333.737 158.499 334.214 159.279 334.543C160.068 334.872 160.917 335.037 161.827 335.037C162.382 335.037 162.88 335.007 163.322 334.946C163.773 334.877 164.185 334.773 164.557 334.634C164.939 334.495 165.29 334.322 165.61 334.114C165.94 333.897 166.265 333.642 166.585 333.347C166.733 333.217 166.88 333.152 167.027 333.152ZM177.908 331.072C176.842 331.107 175.932 331.193 175.178 331.332C174.432 331.462 173.821 331.635 173.345 331.852C172.877 332.069 172.534 332.324 172.318 332.619C172.11 332.914 172.006 333.243 172.006 333.607C172.006 333.954 172.062 334.253 172.175 334.504C172.287 334.755 172.439 334.963 172.63 335.128C172.829 335.284 173.059 335.401 173.319 335.479C173.587 335.548 173.873 335.583 174.177 335.583C174.584 335.583 174.957 335.544 175.295 335.466C175.633 335.379 175.949 335.258 176.244 335.102C176.547 334.946 176.833 334.76 177.102 334.543C177.379 334.326 177.648 334.079 177.908 333.802V331.072ZM170.433 325.69C171.161 324.988 171.945 324.464 172.786 324.117C173.626 323.77 174.558 323.597 175.581 323.597C176.317 323.597 176.972 323.718 177.544 323.961C178.116 324.204 178.597 324.542 178.987 324.975C179.377 325.408 179.671 325.933 179.871 326.548C180.07 327.163 180.17 327.839 180.17 328.576V337H179.143C178.917 337 178.744 336.965 178.623 336.896C178.501 336.818 178.406 336.671 178.337 336.454L178.077 335.206C177.73 335.527 177.392 335.813 177.062 336.064C176.733 336.307 176.387 336.515 176.023 336.688C175.659 336.853 175.269 336.978 174.853 337.065C174.445 337.16 173.99 337.208 173.488 337.208C172.976 337.208 172.495 337.139 172.045 337C171.594 336.853 171.2 336.636 170.862 336.35C170.532 336.064 170.268 335.704 170.069 335.271C169.878 334.829 169.783 334.309 169.783 333.711C169.783 333.191 169.926 332.693 170.212 332.216C170.498 331.731 170.961 331.302 171.603 330.929C172.244 330.556 173.08 330.253 174.112 330.019C175.143 329.776 176.408 329.638 177.908 329.603V328.576C177.908 327.553 177.687 326.782 177.245 326.262C176.803 325.733 176.157 325.469 175.308 325.469C174.736 325.469 174.255 325.543 173.865 325.69C173.483 325.829 173.15 325.989 172.864 326.171C172.586 326.344 172.344 326.505 172.136 326.652C171.936 326.791 171.737 326.86 171.538 326.86C171.382 326.86 171.247 326.821 171.135 326.743C171.022 326.656 170.927 326.552 170.848 326.431L170.433 325.69ZM191.364 326.002C191.26 326.193 191.1 326.288 190.883 326.288C190.753 326.288 190.606 326.24 190.441 326.145C190.277 326.05 190.073 325.946 189.83 325.833C189.596 325.712 189.315 325.603 188.985 325.508C188.656 325.404 188.266 325.352 187.815 325.352C187.425 325.352 187.074 325.404 186.762 325.508C186.45 325.603 186.182 325.738 185.956 325.911C185.74 326.084 185.571 326.288 185.449 326.522C185.337 326.747 185.28 326.994 185.28 327.263C185.28 327.601 185.376 327.883 185.566 328.108C185.766 328.333 186.026 328.528 186.346 328.693C186.667 328.858 187.031 329.005 187.438 329.135C187.846 329.256 188.262 329.391 188.686 329.538C189.12 329.677 189.54 329.833 189.947 330.006C190.355 330.179 190.719 330.396 191.039 330.656C191.36 330.916 191.616 331.237 191.806 331.618C192.006 331.991 192.105 332.441 192.105 332.97C192.105 333.577 191.997 334.14 191.78 334.66C191.564 335.171 191.243 335.618 190.818 335.999C190.394 336.372 189.874 336.666 189.258 336.883C188.643 337.1 187.932 337.208 187.126 337.208C186.208 337.208 185.376 337.061 184.63 336.766C183.885 336.463 183.252 336.077 182.732 335.609L183.278 334.725C183.348 334.612 183.43 334.526 183.525 334.465C183.621 334.404 183.742 334.374 183.889 334.374C184.045 334.374 184.21 334.435 184.383 334.556C184.557 334.677 184.765 334.812 185.007 334.959C185.259 335.106 185.562 335.241 185.917 335.362C186.273 335.483 186.715 335.544 187.243 335.544C187.694 335.544 188.088 335.488 188.426 335.375C188.764 335.254 189.046 335.093 189.271 334.894C189.497 334.695 189.661 334.465 189.765 334.205C189.878 333.945 189.934 333.668 189.934 333.373C189.934 333.009 189.835 332.71 189.635 332.476C189.445 332.233 189.189 332.03 188.868 331.865C188.548 331.692 188.179 331.544 187.763 331.423C187.356 331.293 186.936 331.159 186.502 331.02C186.078 330.881 185.657 330.725 185.241 330.552C184.834 330.37 184.47 330.145 184.149 329.876C183.829 329.607 183.569 329.278 183.369 328.888C183.179 328.489 183.083 328.008 183.083 327.445C183.083 326.942 183.187 326.461 183.395 326.002C183.603 325.534 183.907 325.127 184.305 324.78C184.704 324.425 185.194 324.143 185.774 323.935C186.355 323.727 187.018 323.623 187.763 323.623C188.63 323.623 189.406 323.762 190.09 324.039C190.784 324.308 191.382 324.68 191.884 325.157L191.364 326.002ZM203.756 328.979C203.756 328.442 203.678 327.952 203.522 327.51C203.375 327.059 203.154 326.674 202.859 326.353C202.573 326.024 202.222 325.772 201.806 325.599C201.39 325.417 200.918 325.326 200.389 325.326C199.28 325.326 198.4 325.651 197.75 326.301C197.109 326.942 196.71 327.835 196.554 328.979H203.756ZM205.628 335.154C205.342 335.501 205 335.804 204.601 336.064C204.203 336.315 203.774 336.523 203.314 336.688C202.864 336.853 202.396 336.974 201.91 337.052C201.425 337.139 200.944 337.182 200.467 337.182C199.557 337.182 198.717 337.03 197.945 336.727C197.183 336.415 196.52 335.964 195.956 335.375C195.402 334.777 194.968 334.04 194.656 333.165C194.344 332.29 194.188 331.284 194.188 330.149C194.188 329.23 194.327 328.372 194.604 327.575C194.89 326.778 195.298 326.089 195.826 325.508C196.355 324.919 197.001 324.459 197.763 324.13C198.526 323.792 199.384 323.623 200.337 323.623C201.126 323.623 201.854 323.757 202.521 324.026C203.197 324.286 203.778 324.667 204.263 325.17C204.757 325.664 205.143 326.279 205.42 327.016C205.698 327.744 205.836 328.576 205.836 329.512C205.836 329.876 205.797 330.119 205.719 330.24C205.641 330.361 205.494 330.422 205.277 330.422H196.476C196.502 331.254 196.615 331.978 196.814 332.593C197.022 333.208 197.308 333.724 197.672 334.14C198.036 334.547 198.47 334.855 198.972 335.063C199.475 335.262 200.038 335.362 200.662 335.362C201.243 335.362 201.741 335.297 202.157 335.167C202.582 335.028 202.946 334.881 203.249 334.725C203.553 334.569 203.804 334.426 204.003 334.296C204.211 334.157 204.389 334.088 204.536 334.088C204.727 334.088 204.874 334.162 204.978 334.309L205.628 335.154ZM225.406 321.283C225.328 321.413 225.241 321.513 225.146 321.582C225.059 321.643 224.951 321.673 224.821 321.673C224.674 321.673 224.5 321.599 224.301 321.452C224.102 321.305 223.85 321.144 223.547 320.971C223.252 320.789 222.893 320.624 222.468 320.477C222.052 320.33 221.545 320.256 220.947 320.256C220.384 320.256 219.885 320.334 219.452 320.49C219.027 320.637 218.668 320.841 218.373 321.101C218.087 321.361 217.87 321.669 217.723 322.024C217.576 322.371 217.502 322.748 217.502 323.155C217.502 323.675 217.628 324.108 217.879 324.455C218.139 324.793 218.477 325.083 218.893 325.326C219.318 325.569 219.794 325.781 220.323 325.963C220.86 326.136 221.406 326.318 221.961 326.509C222.524 326.7 223.07 326.916 223.599 327.159C224.136 327.393 224.613 327.692 225.029 328.056C225.454 328.42 225.792 328.866 226.043 329.395C226.303 329.924 226.433 330.574 226.433 331.345C226.433 332.16 226.294 332.927 226.017 333.646C225.74 334.357 225.332 334.976 224.795 335.505C224.266 336.034 223.612 336.45 222.832 336.753C222.061 337.056 221.181 337.208 220.193 337.208C218.98 337.208 217.879 336.991 216.891 336.558C215.903 336.116 215.058 335.522 214.356 334.777L215.084 333.581C215.153 333.486 215.236 333.408 215.331 333.347C215.435 333.278 215.548 333.243 215.669 333.243C215.782 333.243 215.907 333.291 216.046 333.386C216.193 333.473 216.358 333.585 216.54 333.724C216.722 333.863 216.93 334.014 217.164 334.179C217.398 334.344 217.662 334.495 217.957 334.634C218.26 334.773 218.603 334.89 218.984 334.985C219.365 335.072 219.794 335.115 220.271 335.115C220.869 335.115 221.402 335.033 221.87 334.868C222.338 334.703 222.732 334.474 223.053 334.179C223.382 333.876 223.634 333.516 223.807 333.1C223.98 332.684 224.067 332.22 224.067 331.709C224.067 331.146 223.937 330.686 223.677 330.331C223.426 329.967 223.092 329.664 222.676 329.421C222.26 329.178 221.783 328.975 221.246 328.81C220.709 328.637 220.163 328.463 219.608 328.29C219.053 328.108 218.507 327.9 217.97 327.666C217.433 327.432 216.956 327.129 216.54 326.756C216.124 326.383 215.786 325.92 215.526 325.365C215.275 324.802 215.149 324.108 215.149 323.285C215.149 322.626 215.275 321.989 215.526 321.374C215.786 320.759 216.159 320.213 216.644 319.736C217.138 319.259 217.74 318.878 218.451 318.592C219.17 318.306 219.994 318.163 220.921 318.163C221.961 318.163 222.906 318.328 223.755 318.657C224.613 318.986 225.367 319.463 226.017 320.087L225.406 321.283ZM232.907 337.208C231.867 337.208 231.066 336.918 230.502 336.337C229.948 335.756 229.67 334.92 229.67 333.828V325.768H228.084C227.946 325.768 227.829 325.729 227.733 325.651C227.638 325.564 227.59 325.434 227.59 325.261V324.338L229.748 324.065L230.281 319.996C230.307 319.866 230.364 319.762 230.45 319.684C230.546 319.597 230.667 319.554 230.814 319.554H231.984V324.091H235.793V325.768H231.984V333.672C231.984 334.227 232.119 334.638 232.387 334.907C232.656 335.176 233.003 335.31 233.427 335.31C233.67 335.31 233.878 335.28 234.051 335.219C234.233 335.15 234.389 335.076 234.519 334.998C234.649 334.92 234.758 334.851 234.844 334.79C234.94 334.721 235.022 334.686 235.091 334.686C235.213 334.686 235.321 334.76 235.416 334.907L236.092 336.012C235.694 336.385 235.213 336.679 234.649 336.896C234.086 337.104 233.505 337.208 232.907 337.208ZM249.012 323.831V337H247.634C247.304 337 247.096 336.84 247.01 336.519L246.828 335.102C246.256 335.735 245.614 336.246 244.904 336.636C244.193 337.017 243.378 337.208 242.46 337.208C241.74 337.208 241.103 337.091 240.549 336.857C240.003 336.614 239.543 336.276 239.171 335.843C238.798 335.41 238.516 334.885 238.326 334.27C238.144 333.655 238.053 332.974 238.053 332.229V323.831H240.367V332.229C240.367 333.226 240.592 333.997 241.043 334.543C241.502 335.089 242.2 335.362 243.136 335.362C243.82 335.362 244.457 335.202 245.047 334.881C245.645 334.552 246.195 334.101 246.698 333.529V323.831H249.012ZM261.261 326.964C260.827 326.383 260.359 325.98 259.857 325.755C259.354 325.521 258.791 325.404 258.167 325.404C256.945 325.404 256.004 325.842 255.346 326.717C254.687 327.592 254.358 328.84 254.358 330.461C254.358 331.319 254.431 332.056 254.579 332.671C254.726 333.278 254.943 333.78 255.229 334.179C255.515 334.569 255.866 334.855 256.282 335.037C256.698 335.219 257.17 335.31 257.699 335.31C258.461 335.31 259.124 335.137 259.688 334.79C260.26 334.443 260.784 333.954 261.261 333.321V326.964ZM263.575 317.851V337H262.197C261.867 337 261.659 336.84 261.573 336.519L261.365 334.92C260.801 335.596 260.16 336.142 259.441 336.558C258.721 336.974 257.889 337.182 256.945 337.182C256.191 337.182 255.506 337.039 254.891 336.753C254.275 336.458 253.751 336.029 253.318 335.466C252.884 334.903 252.551 334.201 252.317 333.36C252.083 332.519 251.966 331.553 251.966 330.461C251.966 329.49 252.096 328.589 252.356 327.757C252.616 326.916 252.988 326.188 253.474 325.573C253.959 324.958 254.553 324.477 255.255 324.13C255.965 323.775 256.763 323.597 257.647 323.597C258.453 323.597 259.142 323.736 259.714 324.013C260.294 324.282 260.81 324.659 261.261 325.144V317.851H263.575ZM278.591 323.831L271.246 340.887C271.168 341.06 271.069 341.199 270.947 341.303C270.835 341.407 270.657 341.459 270.414 341.459H268.698L271.103 336.233L265.669 323.831H267.671C267.871 323.831 268.027 323.883 268.139 323.987C268.261 324.082 268.343 324.191 268.386 324.312L271.909 332.606C272.048 332.97 272.165 333.351 272.26 333.75C272.382 333.343 272.512 332.957 272.65 332.593L276.069 324.312C276.121 324.173 276.208 324.061 276.329 323.974C276.459 323.879 276.602 323.831 276.758 323.831H278.591Z" fill="white" fill-opacity="0.85"/>
<defs>
<linearGradient id="paint0_linear" x1="259.5" y1="55.3" x2="-58.4128" y2="354.963" gradientUnits="userSpaceOnUse">
<stop offset="0.0104167" stop-color="#0D5A4C"/>
<stop offset="0.3125" stop-color="#5AA799"/>
<stop offset="0.598958" stop-color="#30C59C"/>
<stop offset="0.979167" stop-color="#2D7461"/>
</linearGradient>
</defs>
</svg>
